<?xml version="1.0" encoding="utf-8"?>
<!-- Generator: Adobe Illustrator 25.2.1, SVG Export Plug-In . SVG Version: 6.00 Build 0)  -->
<svg version="1.1" id="Layer_1" xmlns="http://www.w3.org/2000/svg" xmlns:xlink="http://www.w3.org/1999/xlink" x="0px" y="0px"
	 viewBox="0 0 512 512" style="enable-background:new 0 0 512 512;" xml:space="preserve">
<style type="text/css">
	.st0{clip-path:url(#SVGID_2_);}
	.st1{clip-path:url(#SVGID_4_);}
	.st2{clip-path:url(#SVGID_6_);}
	.st3{clip-path:url(#SVGID_8_);}
	.st4{fill:#BFE063;}
	.st5{clip-path:url(#SVGID_10_);}
	.st6{clip-path:url(#SVGID_12_);}
	.st7{clip-path:url(#SVGID_14_);}
	.st8{clip-path:url(#SVGID_16_);}
	.st9{fill:#6F913D;}
</style>
<g id="surface1">
	<g>
		<defs>
			<rect id="SVGID_1_" x="93.2" width="374.5" height="453.5"/>
		</defs>
		<clipPath id="SVGID_2_">
			<use xlink:href="#SVGID_1_"  style="overflow:visible;"/>
		</clipPath>
		<g class="st0">
			<g>
				<defs>
					<polygon id="SVGID_3_" points="179.9,10.9 509.2,332.4 195.6,638.7 -133.7,317.1 					"/>
				</defs>
				<clipPath id="SVGID_4_">
					<use xlink:href="#SVGID_3_"  style="overflow:visible;"/>
				</clipPath>
				<g class="st1">
					<g>
						<defs>
							<polygon id="SVGID_5_" points="179.9,10.9 509.2,332.4 195.6,638.7 -133.7,317.1 							"/>
						</defs>
						<clipPath id="SVGID_6_">
							<use xlink:href="#SVGID_5_"  style="overflow:visible;"/>
						</clipPath>
						<g class="st2">
							<g>
								<defs>
									<polygon id="SVGID_7_" points="179.9,10.9 507,330.3 194.5,635.4 -132.6,316.1 									"/>
								</defs>
								<clipPath id="SVGID_8_">
									<use xlink:href="#SVGID_7_"  style="overflow:visible;"/>
								</clipPath>
								<g class="st3">
									<path class="st4" d="M172.7,386.6c0,0-64.3-58.9-72.2-165s78.6-208.1,77.3-208.1c-1.3,0,105.5,69.3,111,190.9
										C294.3,326.1,172.7,386.6,172.7,386.6z M357.1,442.7c56-18.3,102.2-66.5,102.2-66.5s-59.5-59-134.1-51
										c-96.3,10.1-142,89.2-142,89.2S276.2,469.1,357.1,442.7z"/>
								</g>
							</g>
						</g>
					</g>
				</g>
			</g>
		</g>
	</g>
	<g>
		<defs>
			<rect id="SVGID_9_" x="48.3" y="146.3" width="299.6" height="365.7"/>
		</defs>
		<clipPath id="SVGID_10_">
			<use xlink:href="#SVGID_9_"  style="overflow:visible;"/>
		</clipPath>
		<g class="st5">
			<g>
				<defs>
					<polygon id="SVGID_11_" points="179.9,10.9 509.2,332.4 195.6,638.7 -133.7,317.1 					"/>
				</defs>
				<clipPath id="SVGID_12_">
					<use xlink:href="#SVGID_11_"  style="overflow:visible;"/>
				</clipPath>
				<g class="st6">
					<g>
						<defs>
							<polygon id="SVGID_13_" points="179.9,10.9 509.2,332.4 195.6,638.7 -133.7,317.1 							"/>
						</defs>
						<clipPath id="SVGID_14_">
							<use xlink:href="#SVGID_13_"  style="overflow:visible;"/>
						</clipPath>
						<g class="st7">
							<g>
								<defs>
									<polygon id="SVGID_15_" points="179.9,10.9 507,330.3 194.5,635.4 -132.6,316.1 									"/>
								</defs>
								<clipPath id="SVGID_16_">
									<use xlink:href="#SVGID_15_"  style="overflow:visible;"/>
								</clipPath>
								<g class="st8">
									<path class="st9" d="M178.4,355.5c-26,56.6-62.4,95.1-70.2,102.9C93,471.1,78.7,484.5,65,497.6c-3.1,3.1-3.2,7.8-0.1,10.9
										c3,3,8,3,11.1,0c12.9-12.3,26.1-24.6,40.1-36.6c0.6-0.3,1.1-0.6,1.6-1.1l1.2-1.2c58.8-49.1,129.7-90.5,219.2-90
										c4.2,0.2,7.7-3.2,7.8-7.4s-3.4-7.7-7.7-7.8c-69.9-0.3-128.6,23.2-179.2,56.1c38.4-55.7,84.8-151.9,50-260.5
										c-1.3-4.1-5.7-6.3-9.8-5c-4.1,1.2-6.4,5.7-5.1,9.5C217.3,236.9,202.2,303.8,178.4,355.5"/>
								</g>
							</g>
						</g>
					</g>
				</g>
			</g>
		</g>
	</g>
</g>
</svg>
