<svg height="512pt" viewBox="0 0 512 512" width="512pt" xmlns="http://www.w3.org/2000/svg"><path d="m240.546875 159.679688h30.90625v352.320312h-30.90625zm0 0" fill="#4ca84f"/><path d="m0 256 256 256c0-141.386719-114.613281-256-256-256zm0 0" fill="#72e077"/><path d="m0 256c0 141.386719 114.613281 256 256 256-49.992188-120.691406-144.144531-209.667969-256-256zm0 0" fill="#5fc463"/><path d="m460.554688 270.734375-204.554688 241.265625c141.386719 0 256-114.613281 256-256zm0 0" fill="#378c3a"/><path d="m481.074219 257.863281-20.519531 23.171875c16.640624-9.375 33.824218-17.734375 51.445312-25.035156-10.46875 0-20.785156.644531-30.925781 1.863281zm0 0" fill="#4ca84f"/><path d="m256 512 224.726562-241.699219c.199219-4.121093.320313-8.265625.347657-12.4375-126.800781 15.273438-225.074219 123.21875-225.074219 254.136719zm0 0" fill="#5fc463"/><path d="m256 512c120.09375 0 218.203125-106.96875 224.726562-241.699219-98.015624 49.164063-179.46875 132.433594-224.726562 241.699219zm0 0" fill="#4ca84f"/><path d="m256 0c-51.207031 0-92.714844 41.511719-92.714844 92.714844h185.429688c0-51.203125-41.507813-92.714844-92.714844-92.714844zm0 0" fill="#ff4815"/><path d="m356.316406 154.664062-7.601562-154.664062c-9.898438 0-19.433594 1.558594-28.375 4.429688l-64.339844 255.691406c55.472656 0 100.441406-44.96875 100.441406-100.441406 0-1.683594-.042968-3.355469-.125-5.015626zm0 0" fill="#ff4815"/><path d="m325.539062 159.679688c0-1.683594-.03125-3.355469-.089843-5.015626l-5.109375-150.234374c-37.324219 11.988281-64.339844 46.980468-64.339844 88.285156l-41.207031 83.703125 41.207031 83.703125c38.402344 0 69.539062-44.96875 69.539062-100.441406zm0 0" fill="#ff6a2e"/><path d="m163.285156 0-7.601562 154.664062c-.082032 1.660157-.125 3.332032-.125 5.015626 0 55.472656 44.96875 100.441406 100.441406 100.441406v-167.40625c0-51.203125-41.511719-92.714844-92.714844-92.714844zm0 0" fill="#ff8c46"/></svg>